<svg xmlns="http://www.w3.org/2000/svg" viewBox="0 0 512 512">
  <path fill="#2ec866" d="M477.5 128C463 103.05 285.13 0 256 0S49 103.05 34.5 128s-14.5 230.95 0 256 170.87 128 221.5 128 206.69-102.55 221.5-128 14.45-230.95-.5-256zm-81.51 136.16h-27.61c-1.08-1.35-2.17-2.7-3.26-3.97-22.02-25.83-43.29-30.27-62.15-26.01V318h-47.2c.06-10.52.17-217.03 0-217.03h47.22l-.05 108.27 1.39-1.73c19.32-24.03 50.52-31.75 79-25.65 14.22 3.07 32.66 12.33 46.37 35.65 1.12 1.96 4.47 8.04 7.1 15.77 2.83 8.27 4.28 17.61 4.28 27.77 0 2.04-.1 3.64-.23 5.11h.14zm-209.39 53.05H139.43V264.4H95.08v52.81H47.88V99.16H95.1v117.82h44.35V99.16h47.17l-.07 218.05z"/>
</svg>
